<?xml version="1.0" standalone="no"?>
<!DOCTYPE svg PUBLIC "-//W3C//DTD SVG 20010904//EN"
 "http://www.w3.org/TR/2001/REC-SVG-20010904/DTD/svg10.dtd">
<svg version="1.0" xmlns="http://www.w3.org/2000/svg"
 width="650.000000pt" height="650.000000pt" viewBox="0 0 650.000000 650.000000"
 preserveAspectRatio="xMidYMid meet">
<metadata>
Created by potrace 1.15, written by Peter Selinger 2001-2017
</metadata>
<g transform="translate(0.000000,650.000000) scale(0.100000,-0.100000)"
fill="#000000" stroke="none">
<path d="M0 3250 l0 -3250 3250 0 3250 0 0 3250 0 3250 -3250 0 -3250 0 0
-3250z m2901 1968 c88 -30 102 -47 391 -480 l278 -418 946 0 c697 0 957 -3
986 -12 50 -15 122 -78 151 -132 l22 -41 3 -710 c2 -629 1 -715 -13 -752 -27
-71 -69 -119 -132 -149 l-58 -29 -341 -5 -342 -5 173 -258 c94 -142 177 -275
184 -296 39 -132 -26 -270 -157 -329 -33 -15 -85 -17 -482 -17 l-445 0 -52 24
c-29 13 -67 40 -85 60 -18 20 -127 179 -243 354 -115 174 -213 315 -217 314
-4 -1 -110 -155 -235 -342 -255 -380 -261 -387 -384 -406 -40 -6 -407 -9 -984
-7 -1013 3 -947 -1 -1032 64 -70 53 -108 168 -89 269 5 25 163 271 492 765
l486 728 -473 708 c-259 389 -480 726 -490 749 -21 46 -25 135 -7 186 27 79
82 135 163 166 43 17 1937 18 1986 1z"/>
<path d="M1016 4943 c9 -16 244 -367 520 -782 l502 -754 -519 -778 -519 -779
392 0 393 1 518 778 519 779 -521 781 -521 781 -391 0 -391 0 18 -27z"/>
<path d="M2056 4943 c9 -16 244 -367 520 -782 l502 -754 -519 -778 -519 -779
390 0 390 0 324 486 324 486 324 -485 323 -486 388 -1 c213 0 387 2 387 5 0 3
-466 705 -1037 1560 l-1036 1555 -390 0 -389 0 18 -27z"/>
<path d="M3860 3795 l170 -255 690 0 690 0 0 255 0 255 -860 0 -860 0 170
-255z"/>
<path d="M4210 3275 c0 -3 77 -120 170 -260 l170 -255 430 0 430 0 0 260 0
260 -600 0 c-330 0 -600 -2 -600 -5z"/>
</g>
</svg>
